<svg width="61" height="61" viewBox="0 0 61 61" fill="none" xmlns="http://www.w3.org/2000/svg">
<path d="M16.75 22.4713L25.1222 34.1909C25.4669 34.6736 25.9175 35.0706 26.4396 35.3517C26.9617 35.6328 27.5414 35.7904 28.1339 35.8125C28.7263 35.8346 29.316 35.7205 29.8576 35.479C30.3993 35.2376 30.8781 34.8751 31.2578 34.4196L58.6875 1.50004" stroke="black" stroke-width="3" stroke-linecap="round" stroke-linejoin="round"/>
<path d="M54.875 26.2838V51.065C54.875 53.0872 54.0716 55.0267 52.6416 56.4567C51.2117 57.8866 49.2722 58.69 47.25 58.69H9.125C7.10272 58.69 5.16328 57.8866 3.73331 56.4567C2.30334 55.0267 1.5 53.0872 1.5 51.065V12.94C1.5 10.9177 2.30334 8.9783 3.73331 7.54833C5.16328 6.11837 7.10272 5.31502 9.125 5.31502H41.5313" stroke="black" stroke-width="3" stroke-linecap="round" stroke-linejoin="round"/>
</svg>
